<svg xmlns="http://www.w3.org/2000/svg" viewBox="0 0 600 750" role="img" aria-label="Moletom cinza CultStreet">
  <rect width="600" height="750" fill="#e9dfd0"/>
  <path d="M164 210c18-62 72-102 136-102s118 40 136 102l78 244-86 30-38-112v250H210V372l-38 112-86-30z" fill="#b7b7ae"/>
  <path d="M242 124c38 34 78 34 116 0 25 14 43 38 52 72-58 42-162 42-220 0 9-34 27-58 52-72z" fill="#101010"/>
  <path d="M250 358h100c23 0 42 19 42 42v64H208v-64c0-23 19-42 42-42z" fill="#8a8a82"/>
  <text x="300" y="294" text-anchor="middle" font-family="Arial, Helvetica, sans-serif" font-size="64" font-weight="900" fill="#101010">CultStreet</text>
  <path d="M232 184c32 30 104 30 136 0" stroke="#d7342a" stroke-width="14" stroke-linecap="round" fill="none"/>
</svg>


